<svg xmlns="http://www.w3.org/2000/svg" viewBox="0 0 32 32" width="32" height="32">
  <defs>
    <!-- 교육용 그라데이션 -->
    <linearGradient id="boardGradient" x1="0%" y1="0%" x2="100%" y2="100%">
      <stop offset="0%" style="stop-color:#16a34a;stop-opacity:1" />
      <stop offset="100%" style="stop-color:#15803d;stop-opacity:1" />
    </linearGradient>
    
    <linearGradient id="teacherGradient" x1="0%" y1="0%" x2="100%" y2="100%">
      <stop offset="0%" style="stop-color:#f59e0b;stop-opacity:1" />
      <stop offset="100%" style="stop-color:#d97706;stop-opacity:1" />
    </linearGradient>
  </defs>
  
  <!-- 칠판 배경 -->
  <rect x="2" y="4" width="28" height="20" rx="2" fill="url(#boardGradient)" stroke="#166534" stroke-width="1"/>
  
  <!-- 칠판 테두리 (나무 프레임) -->
  <rect x="1" y="3" width="30" height="22" rx="2" fill="none" stroke="#92400e" stroke-width="1.5"/>
  
  <!-- 칠판 위 판서 내용 (간단한 선들) -->
  <line x1="5" y1="8" x2="13" y2="8" stroke="white" stroke-width="1" opacity="0.8"/>
  <line x1="5" y1="11" x2="16" y2="11" stroke="white" stroke-width="1" opacity="0.8"/>
  <line x1="5" y1="14" x2="12" y2="14" stroke="white" stroke-width="1" opacity="0.8"/>
  
  <!-- 간단한 도표 (막대 그래프) -->
  <rect x="20" y="12" width="2" height="8" fill="white" opacity="0.7"/>
  <rect x="23" y="10" width="2" height="10" fill="white" opacity="0.7"/>
  <rect x="26" y="14" width="2" height="6" fill="white" opacity="0.7"/>
  
  <!-- 선생님 심볼 (간단한 인물 + 모자) -->
  <g transform="translate(8, 26)">
    <!-- 몸 -->
    <rect x="6" y="2" width="4" height="3" rx="1" fill="url(#teacherGradient)"/>
    <!-- 머리 -->
    <circle cx="8" cy="1" r="1.5" fill="#fbbf24"/>
    <!-- 모자 (선생님 상징) -->
    <ellipse cx="8" cy="0.5" rx="2" ry="0.8" fill="#374151"/>
    <rect x="6" y="0.2" width="4" height="0.6" fill="#374151"/>
  </g>
  
  <!-- 분필 -->
  <rect x="15" y="26" width="6" height="1" rx="0.5" fill="white" opacity="0.9"/>
  <rect x="15" y="26" width="1" height="1" fill="#fbbf24"/>
</svg>